<svg width="1368pt" height="281pt" xmlns="http://www.w3.org/2000/svg" xmlns:xlink="http://www.w3.org/1999/xlink" xmlns:ev="http://www.w3.org/2001/xml-events" style="overflow: hidden; "><g id="viewport-20241217025934250" class="svg-pan-zoom_viewport" transform="matrix(0.4634469046278902,0,0,0.4634469046278902,0,243.88570989978143)" style="transform: matrix(0.463447, 0, 0, 0.463447, 0, 243.886);">
<g id="graph0" class="graph" transform="scale(1 1) rotate(0) translate(4 277)">
<title>G</title>
<polygon fill="white" stroke="none" points="-4,4 -4,-277 1364.01,-277 1364.01,4 -4,4"></polygon>
<g id="clust1" class="cluster">
<title>cluster_module.App</title>
<polygon fill="none" stroke="black" points="8,-8 8,-265 1352.01,-265 1352.01,-8 8,-8"></polygon>
<text text-anchor="middle" x="680" y="-248.4" font-family="sans-serif" font-size="14.00">module.App</text>
</g>
<!-- module.App.data.aws_caller_identity.current -->
<g id="node1" class="node">
<title>module.App.data.aws_caller_identity.current</title>
<polygon fill="none" stroke="black" points="238.79,-76 16,-76 16,-16 238.79,-16 238.79,-76"></polygon>
<text text-anchor="middle" x="127.39" y="-41.8" font-family="sans-serif" font-size="14.00">data.aws_caller_identity.current</text>
</g>
<!-- module.App.data.aws_ssm_parameter.ECR_name -->
<g id="node2" class="node">
<title>module.App.data.aws_ssm_parameter.ECR_name</title>
<polygon fill="none" stroke="black" points="526.37,-154 274.79,-154 274.79,-94 526.37,-94 526.37,-154"></polygon>
<text text-anchor="middle" x="400.58" y="-119.8" font-family="sans-serif" font-size="14.00">data.aws_ssm_parameter.ECR_name</text>
</g>
<!-- module.App.data.aws_ssm_parameter.ECR_url -->
<g id="node3" class="node">
<title>module.App.data.aws_ssm_parameter.ECR_url</title>
<polygon fill="none" stroke="black" points="1344.01,-232 1107.2,-232 1107.2,-172 1344.01,-172 1344.01,-232"></polygon>
<text text-anchor="middle" x="1225.6" y="-197.8" font-family="sans-serif" font-size="14.00">data.aws_ssm_parameter.ECR_url</text>
</g>
<!-- module.App.data.aws_ssm_parameter.vpc_id -->
<g id="node4" class="node">
<title>module.App.data.aws_ssm_parameter.vpc_id</title>
<polygon fill="none" stroke="black" points="1338.17,-154 1113.03,-154 1113.03,-94 1338.17,-94 1338.17,-154"></polygon>
<text text-anchor="middle" x="1225.6" y="-119.8" font-family="sans-serif" font-size="14.00">data.aws_ssm_parameter.vpc_id</text>
</g>
<!-- module.App.aws_ecs_service.ecs_service -->
<g id="node5" class="node">
<title>module.App.aws_ecs_service.ecs_service</title>
<polygon fill="none" stroke="black" points="1071.2,-154 866.69,-154 866.69,-94 1071.2,-94 1071.2,-154"></polygon>
<text text-anchor="middle" x="968.94" y="-119.8" font-family="sans-serif" font-size="14.00">aws_ecs_service.ecs_service</text>
</g>
<!-- module.App.aws_ecs_task_definition.task_definition -->
<g id="node6" class="node">
<title>module.App.aws_ecs_task_definition.task_definition</title>
<polygon fill="none" stroke="black" points="830.69,-154 562.37,-154 562.37,-94 830.69,-94 830.69,-154"></polygon>
<text text-anchor="middle" x="696.53" y="-119.8" font-family="sans-serif" font-size="14.00">aws_ecs_task_definition.task_definition</text>
</g>
<!-- module.App.aws_ecs_service.ecs_service&#45;&gt;module.App.aws_ecs_task_definition.task_definition -->
<g id="edge1" class="edge">
<title>module.App.aws_ecs_service.ecs_service-&gt;module.App.aws_ecs_task_definition.task_definition</title>
<path fill="none" stroke="black" d="M866.48,-124C858.64,-124 850.63,-124 842.58,-124"></path>
<polygon fill="black" stroke="black" points="842.69,-120.5 832.69,-124 842.69,-127.5 842.69,-120.5"></polygon>
</g>
<!-- module.App.aws_lb_listener.listener -->
<g id="node7" class="node">
<title>module.App.aws_lb_listener.listener</title>
<polygon fill="none" stroke="black" points="784.42,-232 608.64,-232 608.64,-172 784.42,-172 784.42,-232"></polygon>
<text text-anchor="middle" x="696.53" y="-197.8" font-family="sans-serif" font-size="14.00">aws_lb_listener.listener</text>
</g>
<!-- module.App.aws_ecs_service.ecs_service&#45;&gt;module.App.aws_lb_listener.listener -->
<g id="edge2" class="edge">
<title>module.App.aws_ecs_service.ecs_service-&gt;module.App.aws_lb_listener.listener</title>
<path fill="none" stroke="black" d="M866.48,-153.27C843.19,-159.98 818.48,-167.11 795.35,-173.78"></path>
<polygon fill="black" stroke="black" points="794.58,-170.36 785.94,-176.5 796.52,-177.09 794.58,-170.36"></polygon>
</g>
<!-- module.App.aws_ecs_task_definition.task_definition&#45;&gt;module.App.data.aws_ssm_parameter.ECR_name -->
<g id="edge3" class="edge">
<title>module.App.aws_ecs_task_definition.task_definition-&gt;module.App.data.aws_ssm_parameter.ECR_name</title>
<path fill="none" stroke="black" d="M561.88,-124C554.04,-124 546.14,-124 538.28,-124"></path>
<polygon fill="black" stroke="black" points="538.32,-120.5 528.32,-124 538.32,-127.5 538.32,-120.5"></polygon>
</g>
<!-- module.App.aws_lb_target_group.target_group -->
<g id="node8" class="node">
<title>module.App.aws_lb_target_group.target_group</title>
<polygon fill="none" stroke="black" points="518.79,-232 282.36,-232 282.36,-172 518.79,-172 518.79,-232"></polygon>
<text text-anchor="middle" x="400.58" y="-197.8" font-family="sans-serif" font-size="14.00">aws_lb_target_group.target_group</text>
</g>
<!-- module.App.aws_lb_listener.listener&#45;&gt;module.App.aws_lb_target_group.target_group -->
<g id="edge4" class="edge">
<title>module.App.aws_lb_listener.listener-&gt;module.App.aws_lb_target_group.target_group</title>
<path fill="none" stroke="black" d="M608.53,-202C584.01,-202 556.81,-202 530.4,-202"></path>
<polygon fill="black" stroke="black" points="530.65,-198.5 520.65,-202 530.65,-205.5 530.65,-198.5"></polygon>
</g>
<!-- module.App.null_resource.docker_build -->
<g id="node9" class="node">
<title>module.App.null_resource.docker_build</title>
<polygon fill="none" stroke="black" points="794.91,-76 598.15,-76 598.15,-16 794.91,-16 794.91,-76"></polygon>
<text text-anchor="middle" x="696.53" y="-41.8" font-family="sans-serif" font-size="14.00">null_resource.docker_build</text>
</g>
<!-- module.App.null_resource.docker_build&#45;&gt;module.App.data.aws_ssm_parameter.ECR_name -->
<g id="edge5" class="edge">
<title>module.App.null_resource.docker_build-&gt;module.App.data.aws_ssm_parameter.ECR_name</title>
<path fill="none" stroke="black" d="M598.05,-71.86C575.37,-77.88 550.91,-84.37 527.21,-90.66"></path>
<polygon fill="black" stroke="black" points="526.61,-87.2 517.84,-93.15 528.4,-93.97 526.61,-87.2"></polygon>
</g>
<!-- module.App.null_resource.docker_login -->
<g id="node10" class="node">
<title>module.App.null_resource.docker_login</title>
<polygon fill="none" stroke="black" points="498.96,-76 302.2,-76 302.2,-16 498.96,-16 498.96,-76"></polygon>
<text text-anchor="middle" x="400.58" y="-41.8" font-family="sans-serif" font-size="14.00">null_resource.docker_login</text>
</g>
<!-- module.App.null_resource.docker_build&#45;&gt;module.App.null_resource.docker_login -->
<g id="edge6" class="edge">
<title>module.App.null_resource.docker_build-&gt;module.App.null_resource.docker_login</title>
<path fill="none" stroke="black" d="M598.05,-46C570.02,-46 539.27,-46 510.59,-46"></path>
<polygon fill="black" stroke="black" points="510.8,-42.5 500.8,-46 510.8,-49.5 510.8,-42.5"></polygon>
</g>
<!-- module.App.null_resource.docker_login&#45;&gt;module.App.data.aws_caller_identity.current -->
<g id="edge7" class="edge">
<title>module.App.null_resource.docker_login-&gt;module.App.data.aws_caller_identity.current</title>
<path fill="none" stroke="black" d="M302.06,-46C285.24,-46 267.57,-46 250.21,-46"></path>
<polygon fill="black" stroke="black" points="250.37,-42.5 240.37,-46 250.37,-49.5 250.37,-42.5"></polygon>
</g>
<!-- module.App.null_resource.docker_push -->
<g id="node11" class="node">
<title>module.App.null_resource.docker_push</title>
<polygon fill="none" stroke="black" points="1322.82,-76 1128.39,-76 1128.39,-16 1322.82,-16 1322.82,-76"></polygon>
<text text-anchor="middle" x="1225.6" y="-41.8" font-family="sans-serif" font-size="14.00">null_resource.docker_push</text>
</g>
<!-- module.App.null_resource.docker_tag -->
<g id="node12" class="node">
<title>module.App.null_resource.docker_tag</title>
<polygon fill="none" stroke="black" points="1061.49,-76 876.4,-76 876.4,-16 1061.49,-16 1061.49,-76"></polygon>
<text text-anchor="middle" x="968.94" y="-41.8" font-family="sans-serif" font-size="14.00">null_resource.docker_tag</text>
</g>
<!-- module.App.null_resource.docker_push&#45;&gt;module.App.null_resource.docker_tag -->
<g id="edge8" class="edge">
<title>module.App.null_resource.docker_push-&gt;module.App.null_resource.docker_tag</title>
<path fill="none" stroke="black" d="M1127.96,-46C1110.1,-46 1091.39,-46 1073.34,-46"></path>
<polygon fill="black" stroke="black" points="1073.41,-42.5 1063.41,-46 1073.41,-49.5 1073.41,-42.5"></polygon>
</g>
<!-- module.App.null_resource.docker_tag&#45;&gt;module.App.null_resource.docker_build -->
<g id="edge9" class="edge">
<title>module.App.null_resource.docker_tag-&gt;module.App.null_resource.docker_build</title>
<path fill="none" stroke="black" d="M876.01,-46C853.65,-46 829.51,-46 806.44,-46"></path>
<polygon fill="black" stroke="black" points="806.72,-42.5 796.72,-46 806.72,-49.5 806.72,-42.5"></polygon>
</g>
</g>
</g></svg>